<svg xmlns="http://www.w3.org/2000/svg" width="56" height="40" viewBox="0 0 56 40">
  <g id="Group_7" data-name="Group 7" transform="translate(-2765 -1366.646)">
    <path id="Rectangle_4" data-name="Rectangle 4" d="M0,0H50a6,6,0,0,1,6,6V6a0,0,0,0,1,0,0H6A6,6,0,0,1,0,0V0A0,0,0,0,1,0,0Z" transform="translate(2765 1366.646)" fill="#e6e6e6"/>
    <path id="Rectangle_5" data-name="Rectangle 5" d="M0,0H7A0,0,0,0,1,7,0V34a0,0,0,0,1,0,0H7a7,7,0,0,1-7-7V0A0,0,0,0,1,0,0Z" transform="translate(2783 1372.646)" fill="#e6e6e6"/>
    <path id="Rectangle_6" data-name="Rectangle 6" d="M0,0H16a6,6,0,0,1,6,6V6a0,0,0,0,1,0,0H6A6,6,0,0,1,0,0V0A0,0,0,0,1,0,0Z" transform="translate(2799 1383.646)" fill="#e6e6e6"/>
    <path id="Rectangle_10" data-name="Rectangle 10" d="M0,0H16a6,6,0,0,1,6,6V6a0,0,0,0,1,0,0H6A6,6,0,0,1,0,0V0A0,0,0,0,1,0,0Z" transform="translate(2799 1400.646)" fill="#e6e6e6"/>
  </g>
</svg>
